# xmcd
#
# Track frame offsets:
#	150
#	15660
#	28523
#	33009
#	43521
#	73409
#	83959
#	101174
#	127754
#	152739
# Disc length: 2936 seconds
# Revision: 1
# Processed by: cddbd v1.5.2PL0 Copyright (c) Steve Scherf et al.
#
# Submitted via: libkcddb 0.31
#
DISCID=760b760a
DTITLE=James Brown - Feel The Groove [CD 2)
DYEAR=2006
DGENRE=Funk
TTITLE0=I Got You (I Feel Good)
TTITLE1=Gonna Have A Funky Good Time
TTITLE2=Cold Sweat
TTITLE3=I Got The Feelin'
TTITLE4=Sex Machine
TTITLE5=Get Up Offa That Thing
TTITLE6=Please, Please, Please
TTITLE7=Georgia On My Mind
TTITLE8=Try Me
TTITLE9=Medley: It's A Man's, Man's, Man's World/Lost Someone/It's A Man's, Man's, Man's World
EXTD=Publisher: Vintage Vinyl
EXTT0=
EXTT1=
EXTT2=
EXTT3=
EXTT4=
EXTT5=
EXTT6=
EXTT7=
EXTT8=
EXTT9=
PLAYORDER=
